<svg width="64" height="64" viewBox="0 0 64 64" xmlns="http://www.w3.org/2000/svg">
  
  <defs>
    <pattern id="millimeterGrid" width="8" height="8" patternUnits="userSpaceOnUse">
      <path d="M 8 0 L 0 0 0 8" fill="none" stroke="#e0e0e0" stroke-width="0.5"/>
    </pattern>

    <pattern id="blueHatch" width="4" height="4" patternUnits="userSpaceOnUse" patternTransform="rotate(45)">
      <rect width="4" height="4" fill="#fff" opacity="0"/>
      <line x1="0" y1="0" x2="0" y2="4" stroke="#0055aa" stroke-width="0.5" opacity="0.3"/>
    </pattern>
  </defs>

  <rect width="64" height="64" fill="#ffffff"/>
  <rect width="64" height="64" fill="url(#millimeterGrid)" />

  <g>
      <rect x="6" y="6" width="52" height="52" rx="4" 
            fill="url(#blueHatch)" 
            stroke="#0055aa" stroke-width="2"/>
      
      <rect x="26" y="26" width="12" height="12" rx="1" 
            fill="#ffffff" 
            stroke="#0055aa" stroke-width="1.5"/>
      
      <line x1="32" y1="6" x2="32" y2="26" stroke="#0055aa" stroke-width="1.5" stroke-dasharray="4 2"/>
      <line x1="32" y1="58" x2="32" y2="38" stroke="#0055aa" stroke-width="1.5" stroke-dasharray="4 2"/>
      <line x1="6" y1="32" x2="26" y2="32" stroke="#0055aa" stroke-width="1.5" stroke-dasharray="4 2"/>
      <line x1="58" y1="32" x2="38" y2="32" stroke="#0055aa" stroke-width="1.5" stroke-dasharray="4 2"/>
      
      <line x1="6" y1="6" x2="10" y2="6" stroke="#0055aa" stroke-width="1" />
      <line x1="6" y1="6" x2="6" y2="10" stroke="#0055aa" stroke-width="1" />
      
      <line x1="54" y1="6" x2="58" y2="6" stroke="#0055aa" stroke-width="1" />
      <line x1="58" y1="6" x2="58" y2="10" stroke="#0055aa" stroke-width="1" />

      <line x1="6" y1="58" x2="10" y2="58" stroke="#0055aa" stroke-width="1" />
      <line x1="6" y1="58" x2="6" y2="54" stroke="#0055aa" stroke-width="1" />

      <line x1="58" y1="58" x2="54" y2="58" stroke="#0055aa" stroke-width="1" />
      <line x1="58" y1="58" x2="58" y2="54" stroke="#0055aa" stroke-width="1" />
  </g>
  
</svg>
