<svg width="64" height="64" viewBox="0 0 64 64" xmlns="http://www.w3.org/2000/svg">
  <defs>
    <filter id="cyberGlowB" x="-50%" y="-50%" width="200%" height="200%">
      <feGaussianBlur in="SourceGraphic" stdDeviation="1.5" result="blur" />
      <feColorMatrix in="blur" type="matrix" values="1 0 0 0 0  0 1 0 0 0  0 0 1 0 0  0 0 0 2 0" result="brightBlur"/>
      <feMerge>
        <feMergeNode in="brightBlur" />
        <feMergeNode in="SourceGraphic" />
      </feMerge>
    </filter>
    <pattern id="techGridB" width="8" height="8" patternUnits="userSpaceOnUse">
        <rect width="8" height="8" fill="#080810"/>
        <path d="M 8 0 L 0 0 0 8" fill="none" stroke="#151525" stroke-width="0.5"/>
    </pattern>
  </defs>

  <rect width="64" height="64" fill="url(#techGridB)"/>
  <rect x="2" y="2" width="60" height="60" rx="4" fill="none" stroke="#333355" stroke-width="2"/>

  <g filter="url(#cyberGlowB)" fill="none" stroke-width="2" stroke-linecap="round">
      <path d="M 0 32 H 24 M 40 32 H 64" stroke="#00ffff"/>
      <circle cx="24" cy="32" r="2" fill="#00ffff" stroke="none"/>
      <circle cx="40" cy="32" r="2" fill="#00ffff" stroke="none"/>
      
      <path d="M 32 0 V 24 M 32 40 V 64" stroke="#ff00ff"/>
      <circle cx="32" cy="24" r="2" fill="#ff00ff" stroke="none"/>
      <circle cx="32" cy="40" r="2" fill="#ff00ff" stroke="none"/>

      <rect x="26" y="26" width="12" height="12" rx="1" fill="#000" stroke="#fff" stroke-width="1" opacity="0.8"/>
      <rect x="29" y="29" width="6" height="6" fill="#00ffff" stroke="none"/>
  </g>
  
  <g fill="#444466">
      <circle cx="5" cy="5" r="1.5"/><circle cx="59" cy="5" r="1.5"/>
      <circle cx="5" cy="59" r="1.5"/><circle cx="59" cy="59" r="1.5"/>
  </g>
</svg>
