<svg width="64" height="64" viewBox="0 0 64 64" xmlns="http://www.w3.org/2000/svg">
  <defs>
    <filter id="cyberGlowH" x="-50%" y="-50%" width="200%" height="200%">
      <feGaussianBlur in="SourceGraphic" stdDeviation="1.5" result="blur" />
      <feColorMatrix in="blur" type="matrix" values="1 0 0 0 0  0 1 0 0 0  0 0 1 0 0  0 0 0 2 0" result="brightBlur"/>
      <feMerge><feMergeNode in="brightBlur" /><feMergeNode in="SourceGraphic" /></feMerge>
    </filter>
    <pattern id="techGridH" width="8" height="8" patternUnits="userSpaceOnUse">
        <rect width="8" height="8" fill="#080810"/>
        <path d="M 8 0 L 0 0 0 8" fill="none" stroke="#151525" stroke-width="0.5"/>
    </pattern>
  </defs>

  <rect width="64" height="64" fill="url(#techGridH)"/>
  <path d="M 2 16 L 16 2 L 48 2 L 62 16 L 62 60 C 62 62, 60 62, 58 62 L 6 62 C 4 62, 2 62, 2 60 Z" 
        fill="none" stroke="#333355" stroke-width="2"/>

  <g filter="url(#cyberGlowH)" fill="none" stroke-width="2" stroke-linecap="round">
      
      <path d="M 32 64 V 44" stroke="#ff00ff"/>
      <path d="M 24 44 H 40 V 36 H 24 V 44" stroke="#00ffff" stroke-width="1"/>

      <g>
          <rect x="18" y="14" width="10" height="6" rx="1" fill="#00ffff" stroke="none"/>
          <rect x="20" y="16" width="6" height="2" rx="0.5" fill="#ff00ff" stroke="none"/>
          <rect x="36" y="14" width="10" height="6" rx="1" fill="#00ffff" stroke="none"/>
          <rect x="38" y="16" width="6" height="2" rx="0.5" fill="#ff00ff" stroke="none"/>
      </g>

      <rect x="26" y="26" width="12" height="8" fill="#000" stroke="#fff" stroke-width="1"/>
      <line x1="32" y1="26" x2="32" y2="34" stroke="#ff00ff" stroke-width="2"/>
  </g>
  
  <g fill="#222233" stroke="none">
      <rect x="4" y="24" width="4" height="20" rx="1"/>
      <rect x="56" y="24" width="4" height="20" rx="1"/>
  </g>
</svg>
